name C:\Users\Nicos\Desktop\Gil_twoSteps\Study2\ExperimentalData\IK_Splined\twoSteps_IK_BSplines_40_meshInts_study2_p02_s_01_lowIK_modROI.mot
datacolumns 38
datarows 7
range 0.54600000 0.56392994
endheader
                time	         pelvis_tilt	         pelvis_list	     pelvis_rotation	           pelvis_tx	           pelvis_ty	           pelvis_tz	       hip_flexion_r	     hip_adduction_r	      hip_rotation_r	        knee_angle_r	       ankle_angle_r	    subtalar_angle_r	         mtp_angle_r	       hip_flexion_l	     hip_adduction_l	      hip_rotation_l	        knee_angle_l	       ankle_angle_l	    subtalar_angle_l	         mtp_angle_l	    lumbar_extension	      lumbar_bending	     lumbar_rotation	          arm_flex_r	           arm_add_r	           arm_rot_r	        elbow_flex_r	           pro_sup_r	        wrist_flex_r	         wrist_dev_r	          arm_flex_l	           arm_add_l	           arm_rot_l	        elbow_flex_l	           pro_sup_l	        wrist_flex_l	         wrist_dev_l	
          0.54600000	        -22.78199606	         12.50930089	         -7.45777332	         -0.28913359	          0.87284782	          0.35101867	        -11.83440589	        -16.44879737	          1.08367229	        -25.23392143	        -42.90609865	        -14.97992703	         -4.86763743	         87.78966321	          0.57429815	        -11.06442405	        -86.16668000	          7.53433390	        -13.65827110	          7.37908783	        -15.19660477	        -23.83075028	         -6.92502288	         56.24922064	        -13.02537374	         24.51145613	        140.68466666	         61.79945630	        -18.50802267	         10.46490108	        -75.99241973	          4.67571288	        -45.15900233	         52.63551588	         63.76407131	          1.25854843	         25.38419958	
          0.54769006	        -22.72933534	         12.25533254	         -7.16979990	         -0.27965066	          0.87416437	          0.35127876	        -11.73365065	        -16.01669825	          0.70672363	        -26.13913065	        -43.31919105	        -15.29615036	         -5.66922803	         87.29395520	          0.57989513	        -10.94298605	        -85.45291622	          7.43547908	        -13.65958254	          7.38343271	        -15.48129512	        -23.68670398	         -7.04014021	         54.67347532	        -13.34782138	         23.99978951	        141.22522208	         61.67248632	        -18.66435072	         10.51041218	        -75.31984680	          4.54588898	        -45.11215732	         52.78277210	         63.69919901	          1.30909777	         25.37622161	
          0.55302994	        -22.50218603	         11.47249562	         -6.19773487	         -0.24974346	          0.87821764	          0.35209862	        -11.21265565	        -14.69258024	         -0.56572772	        -29.45282202	        -44.07927248	        -16.08445068	         -7.35192912	         85.55916138	          0.69406622	        -10.60336211	        -83.26654159	          6.90599215	        -13.72479842	          7.42296285	        -16.55554105	        -23.21099214	         -7.29775682	         49.23456254	        -14.37832964	         22.00400851	        142.69783983	         61.06530272	        -19.18154415	         10.64993766	        -73.05889750	          3.81369156	        -44.69809384	         53.46937497	         63.63319076	          1.45983089	         25.34704885	
          0.55690000	        -22.27337122	         10.92584321	         -5.42754234	         -0.22812647	          0.88104273	          0.35269077	        -10.62098977	        -13.77639125	         -1.57397078	        -32.33358206	        -44.05427509	        -16.43304147	         -7.67352693	         84.12381421	          0.87873918	        -10.40377718	        -81.75468667	          6.29285781	        -13.83657957	          7.47886923	        -17.51868991	        -22.84447729	         -7.37237238	         44.80658589	        -15.13755064	         20.15707355	        143.51652526	         60.40762189	        -19.58094978	         10.74654616	        -71.27672938	          2.94286967	        -44.11694783	         54.20080166	         63.73214969	          1.55958527	         25.32171679	
          0.55690000	        -22.27337122	         10.92584321	         -5.42754234	         -0.22812647	          0.88104273	          0.35269077	        -10.62098977	        -13.77639125	         -1.57397078	        -32.33358206	        -44.05427509	        -16.43304147	         -7.67352693	         84.12381421	          0.87873918	        -10.40377718	        -81.75468667	          6.29285781	        -13.83657957	          7.47886923	        -17.51868991	        -22.84447729	         -7.37237238	         44.80658589	        -15.13755064	         20.15707355	        143.51652526	         60.40762189	        -19.58094978	         10.74654616	        -71.27672938	          2.94286967	        -44.11694783	         54.20080166	         63.73214969	          1.55958527	         25.32171679	
          0.55859006	        -22.17344764	         10.68711972	         -5.09119874	         -0.21868631	          0.88227646	          0.35294937	        -10.36260888	        -13.37629090	         -2.01427121	        -33.59161193	        -44.04335871	        -16.58527131	         -7.81396892	         83.49699713	          0.95938598	        -10.31661831	        -81.09445859	          6.02510163	        -13.88539447	          7.50328358	        -17.93929767	        -22.68442001	         -7.40495704	         42.87288547	        -15.46910297	         19.35051580	        143.87404574	         60.12041223	        -19.75537048	         10.78873516	        -70.49845534	          2.56258115	        -43.86316098	         54.52021620	         63.77536512	          1.60314808	         25.31065426	
          0.56392994	        -21.79057644	          9.98395146	         -4.00792489	         -0.18891851	          0.88589873	          0.35369149	         -9.29110865	        -12.21767773	         -3.43680478	        -38.04156486	        -43.42294843	        -16.93450957	         -7.46173534	         81.26846323	          1.31053204	        -10.07402128	        -79.06471602	          5.07338273	        -14.07118480	          7.58471681	        -19.39972495	        -22.16293541	         -7.36519640	         36.43875193	        -16.42688406	         16.43923031	        144.32950976	         59.11380748	        -20.33481529	         10.97227820	        -67.82239195	          1.02824542	        -42.68703258	         55.68058298	         64.06127157	          1.73630787	         25.25869891	
